:SAMPLES-PER-SECOND 30
:FULLY-SPECIFIED
:DEGREES
200
root  78.8301 19.1684 4.34923 -121.395 88.0696 -162.268
RightUpLeg  -25.0789 10.5682 11.6853
RightLeg  91.8168 10.3472 15.9356
RightFoot  2.09325 0.237724 -1.78319
RightToes  1.16415e-010 -3.18055e-015 8.94531e-016
Spine  42.5791 12.4995 8.07517
Spine1  14.6875 17.3668 -0.600288
HEad  42.5817 2.63858 4.65968
LeftShoulder1  0 -2.69403e-036 -1.28585e-037
LeftArm  33.2024 -31.4351 -131.364
LeftForeArm  34.9767 -10.4508 7.21531
LeftHand  -4.01818 -0.775422 47.4592
RightShoulder  -2.48481e-017 0 -8.08114e-019
RightArm  -3.93258 42.8686 10.1903
RightForeArm  168.873 19.8529 -11.1382
RightHand  21.0972 -28.8796 -77.7438
LeftUpLeg  -60.1008 -2.56054 10.4707
LeftLeg  121.019 -5.35964 -14.1819
LeftFoot  11.7861 0.125579 -0.340121
LeftToes  4.502e-010 -1.85808e-011 5.37561e-011
201
root  79.7985 18.9564 4.4369 -113.182 88.9951 -152.737
RightUpLeg  -20.2557 10.496 11.7844
RightLeg  88.523 11.1549 14.4408
RightFoot  1.90653 0.234642 -1.78303
RightToes  1.16415e-010 -3.18055e-015 8.94531e-016
Spine  41.5643 12.7093 6.38127
Spine1  16.5737 16.6887 -0.0789552
HEad  44.4912 4.58471 4.60407
LeftShoulder1  0 -2.69403e-036 -1.28585e-037
LeftArm  31.672 -30.9377 -128.179
LeftForeArm  36.0855 -9.4042 5.73292
LeftHand  -4.04064 -0.784787 47.6344
RightShoulder  -2.48481e-017 0 -8.08114e-019
RightArm  -5.26383 43.0022 17.196
RightForeArm  -178.584 18.9062 -9.63636
RightHand  94.2781 -69.778 -103.116
LeftUpLeg  -61.728 -2.78213 9.98598
LeftLeg  122.051 -4.0705 -15.6894
LeftFoot  16.914 -0.347685 1.34027
LeftToes  4.502e-010 -1.85808e-011 5.37561e-011
202
root  80.8197 18.7322 4.48615 93.2631 89.8725 54.4206
RightUpLeg  -16.177 9.58876 11.0163
RightLeg  85.0752 11.8407 13.1503
RightFoot  2.27347 0.261682 -1.93925
RightToes  1.16415e-010 -3.18055e-015 8.94531e-016
Spine  40.4666 12.5004 4.56848
Spine1  17.2801 15.5317 0.220176
HEad  46.7087 6.6572 4.57947
LeftShoulder1  0 -2.69403e-036 -1.28585e-037
LeftArm  30.094 -29.4696 -124.45
LeftForeArm  37.0188 -9.25178 3.89713
LeftHand  -3.94215 -0.753161 46.8395
RightShoulder  -2.48481e-017 0 -8.08114e-019
RightArm  -6.30748 43.3386 25.0172
RightForeArm  -159.43 17.3536 -7.11969
RightHand  -162.275 -71.175 -178.899
LeftUpLeg  -62.1168 -3.8431 8.52289
LeftLeg  122.22 -3.29992 -16.7698
LeftFoot  21.4591 -0.804066 2.81906
LeftToes  4.502e-010 -1.85808e-011 5.37561e-011
203
root  81.8958 18.4874 4.47845 113.917 88.3822 74.7076
RightUpLeg  -13.3528 8.89548 9.52055
RightLeg  81.527 12.3895 11.8269
RightFoot  2.94665 0.293089 -2.08075
RightToes  1.16415e-010 -3.18055e-015 8.94531e-016
Spine  38.5615 12.3629 2.40298
Spine1  17.9144 14.3343 0.482239
HEad  48.9246 8.59333 4.25349
LeftShoulder1  0 -2.69403e-036 -1.28585e-037
LeftArm  30.0247 -26.9327 -120.358
LeftForeArm  36.478 -11.6243 3.03582
LeftHand  -3.58096 -0.613707 43.8396
RightShoulder  -2.48481e-017 0 -8.08114e-019
RightArm  -7.04887 43.481 32.7116
RightForeArm  -137.79 15.3537 -4.45133
RightHand  -114.836 -55.9425 156.726
LeftUpLeg  -61.4687 -4.95187 6.26917
LeftLeg  121.826 -3.44502 -16.7787
LeftFoot  22.9256 -0.653917 2.20653
LeftToes  4.502e-010 -1.85808e-011 5.37561e-011
204
root  82.9886 18.2327 4.41432 102.231 86.5448 61.5354
RightUpLeg  -11.8323 8.19147 7.25838
RightLeg  77.9167 12.7818 10.4349
RightFoot  3.66648 0.298544 -2.02512
RightToes  1.16415e-010 -3.18055e-015 8.94531e-016
Spine  35.4802 12.4372 -0.777445
Spine1  19.0507 12.7518 1.76776
HEad  50.8311 10.6309 3.12218
LeftShoulder1  0 -2.69403e-036 -1.28585e-037
LeftArm  34.7128 -23.7913 -116.43
LeftForeArm  30.5093 -16.5417 5.82439
LeftHand  -3.11586 -0.428014 39.8299
RightShoulder  -2.48481e-017 0 -8.08114e-019
RightArm  -7.1361 43.4233 39.7021
RightForeArm  -116.981 13.7736 -2.45944
RightHand  -90.0037 -45.2126 150.971
LeftUpLeg  -60.1551 -5.88137 3.04745
LeftLeg  120.473 -4.78422 -15.3899
LeftFoot  23.1785 -0.533686 1.83078
LeftToes  4.502e-010 -1.85808e-011 5.37561e-011
205
root  84.087 18.0442 4.32712 109.796 83.6485 67.0422
RightUpLeg  -11.146 6.38646 3.89618
RightLeg  74.2481 13.1903 9.62395
RightFoot  5.23735 0.2494 -1.5561
RightToes  1.16415e-010 -3.18055e-015 8.94531e-016
Spine  32.1782 12.2809 -5.27743
Spine1  19.9402 10.1424 4.52762
HEad  52.3416 12.9618 1.21113
LeftShoulder1  0 -2.69403e-036 -1.28585e-037
LeftArm  42.1337 -21.2341 -113.22
LeftForeArm  19.7018 -21.2568 12.7736
LeftHand  -2.88834 -0.35267 37.6864
RightShoulder  -2.48481e-017 0 -8.08114e-019
RightArm  -6.78198 43.3445 46.0128
RightForeArm  -98.2524 12.7644 -1.03165
RightHand  -71.0184 -37.6783 147.313
LeftUpLeg  -58.4915 -7.26865 -1.36278
LeftLeg  117.858 -7.07814 -12.6467
LeftFoot  23.8631 -0.357519 1.28308
LeftToes  4.502e-010 -1.85808e-011 5.37561e-011
